<mxfile host="app.diagrams.net" modified="2023-10-05T17:01:17.402Z" agent="Mozilla/5.0 (Windows NT 10.0; Win64; x64) AppleWebKit/537.36 (KHTML, like Gecko) Chrome/117.0.0.0 Safari/537.36" etag="Hn_7dRea2kEnSt_3gZXI" version="21.8.0" type="github">
  <diagram name="PÃ¡gina-1" id="NLafwp9bv83QT103kxV1">
    <mxGraphModel dx="724" dy="374" grid="1" gridSize="10" guides="1" tooltips="1" connect="1" arrows="1" fold="1" page="1" pageScale="1" pageWidth="827" pageHeight="1169" math="0" shadow="0">
      <root>
        <mxCell id="0" />
        <mxCell id="1" parent="0" />
        <mxCell id="jHylTcCAfwRpH7NAcws_-10" style="edgeStyle=orthogonalEdgeStyle;rounded=0;orthogonalLoop=1;jettySize=auto;html=1;entryX=0;entryY=0.5;entryDx=0;entryDy=0;fontStyle=1" parent="1" source="jHylTcCAfwRpH7NAcws_-1" target="jHylTcCAfwRpH7NAcws_-3" edge="1">
          <mxGeometry relative="1" as="geometry">
            <Array as="points">
              <mxPoint x="260" y="135" />
              <mxPoint x="260" y="145" />
            </Array>
          </mxGeometry>
        </mxCell>
        <mxCell id="jHylTcCAfwRpH7NAcws_-13" style="edgeStyle=orthogonalEdgeStyle;rounded=0;orthogonalLoop=1;jettySize=auto;html=1;entryX=0;entryY=0.5;entryDx=0;entryDy=0;" parent="1" source="jHylTcCAfwRpH7NAcws_-1" target="jHylTcCAfwRpH7NAcws_-5" edge="1">
          <mxGeometry relative="1" as="geometry">
            <Array as="points">
              <mxPoint x="260" y="135" />
              <mxPoint x="260" y="75" />
            </Array>
          </mxGeometry>
        </mxCell>
        <mxCell id="jHylTcCAfwRpH7NAcws_-21" style="edgeStyle=orthogonalEdgeStyle;rounded=0;orthogonalLoop=1;jettySize=auto;html=1;entryX=0;entryY=0.5;entryDx=0;entryDy=0;" parent="1" source="jHylTcCAfwRpH7NAcws_-1" target="jHylTcCAfwRpH7NAcws_-19" edge="1">
          <mxGeometry relative="1" as="geometry">
            <Array as="points">
              <mxPoint x="230" y="135" />
              <mxPoint x="230" y="30" />
              <mxPoint x="450" y="30" />
              <mxPoint x="450" y="65" />
            </Array>
          </mxGeometry>
        </mxCell>
        <mxCell id="jHylTcCAfwRpH7NAcws_-1" value="&lt;span&gt;A&lt;/span&gt;" style="whiteSpace=wrap;html=1;aspect=fixed;fontStyle=1;fillColor=#ffe6cc;strokeColor=#d79b00;" parent="1" vertex="1">
          <mxGeometry x="120" y="110" width="50" height="50" as="geometry" />
        </mxCell>
        <mxCell id="jHylTcCAfwRpH7NAcws_-11" style="edgeStyle=orthogonalEdgeStyle;rounded=0;orthogonalLoop=1;jettySize=auto;html=1;entryX=0;entryY=0.5;entryDx=0;entryDy=0;" parent="1" source="jHylTcCAfwRpH7NAcws_-2" target="jHylTcCAfwRpH7NAcws_-7" edge="1">
          <mxGeometry relative="1" as="geometry" />
        </mxCell>
        <mxCell id="jHylTcCAfwRpH7NAcws_-12" style="edgeStyle=orthogonalEdgeStyle;rounded=0;orthogonalLoop=1;jettySize=auto;html=1;entryX=0;entryY=0.5;entryDx=0;entryDy=0;" parent="1" source="jHylTcCAfwRpH7NAcws_-2" target="jHylTcCAfwRpH7NAcws_-4" edge="1">
          <mxGeometry relative="1" as="geometry">
            <Array as="points">
              <mxPoint x="230" y="225" />
              <mxPoint x="230" y="315" />
            </Array>
          </mxGeometry>
        </mxCell>
        <mxCell id="jHylTcCAfwRpH7NAcws_-2" value="B" style="whiteSpace=wrap;html=1;aspect=fixed;fontStyle=1;fillColor=#ffe6cc;strokeColor=#d79b00;" parent="1" vertex="1">
          <mxGeometry x="120" y="200" width="50" height="50" as="geometry" />
        </mxCell>
        <mxCell id="jHylTcCAfwRpH7NAcws_-14" style="edgeStyle=orthogonalEdgeStyle;rounded=0;orthogonalLoop=1;jettySize=auto;html=1;" parent="1" source="jHylTcCAfwRpH7NAcws_-3" target="jHylTcCAfwRpH7NAcws_-9" edge="1">
          <mxGeometry relative="1" as="geometry" />
        </mxCell>
        <mxCell id="jHylTcCAfwRpH7NAcws_-3" value="C" style="whiteSpace=wrap;html=1;aspect=fixed;fontStyle=1;fillColor=#ffe6cc;strokeColor=#d79b00;" parent="1" vertex="1">
          <mxGeometry x="320" y="120" width="50" height="50" as="geometry" />
        </mxCell>
        <mxCell id="jHylTcCAfwRpH7NAcws_-22" style="edgeStyle=orthogonalEdgeStyle;rounded=0;orthogonalLoop=1;jettySize=auto;html=1;entryX=0;entryY=0.5;entryDx=0;entryDy=0;" parent="1" source="jHylTcCAfwRpH7NAcws_-4" target="jHylTcCAfwRpH7NAcws_-6" edge="1">
          <mxGeometry relative="1" as="geometry">
            <Array as="points">
              <mxPoint x="450" y="315" />
              <mxPoint x="450" y="340" />
              <mxPoint x="590" y="340" />
              <mxPoint x="590" y="225" />
            </Array>
          </mxGeometry>
        </mxCell>
        <mxCell id="jHylTcCAfwRpH7NAcws_-4" value="E" style="whiteSpace=wrap;html=1;aspect=fixed;fontStyle=1;fillColor=#ffe6cc;strokeColor=#d79b00;" parent="1" vertex="1">
          <mxGeometry x="320" y="290" width="50" height="50" as="geometry" />
        </mxCell>
        <mxCell id="jHylTcCAfwRpH7NAcws_-25" style="edgeStyle=orthogonalEdgeStyle;rounded=0;orthogonalLoop=1;jettySize=auto;html=1;entryX=0;entryY=0.5;entryDx=0;entryDy=0;" parent="1" source="jHylTcCAfwRpH7NAcws_-5" target="jHylTcCAfwRpH7NAcws_-16" edge="1">
          <mxGeometry relative="1" as="geometry">
            <Array as="points">
              <mxPoint x="430" y="75" />
              <mxPoint x="430" y="115" />
            </Array>
          </mxGeometry>
        </mxCell>
        <mxCell id="jHylTcCAfwRpH7NAcws_-5" value="F" style="whiteSpace=wrap;html=1;aspect=fixed;fontStyle=1;fillColor=#ffe6cc;strokeColor=#d79b00;" parent="1" vertex="1">
          <mxGeometry x="320" y="50" width="50" height="50" as="geometry" />
        </mxCell>
        <mxCell id="jHylTcCAfwRpH7NAcws_-28" style="edgeStyle=orthogonalEdgeStyle;rounded=0;orthogonalLoop=1;jettySize=auto;html=1;entryX=0;entryY=0.5;entryDx=0;entryDy=0;" parent="1" source="jHylTcCAfwRpH7NAcws_-6" target="jHylTcCAfwRpH7NAcws_-16" edge="1">
          <mxGeometry relative="1" as="geometry">
            <Array as="points">
              <mxPoint x="700" y="225" />
              <mxPoint x="700" y="115" />
            </Array>
          </mxGeometry>
        </mxCell>
        <mxCell id="jHylTcCAfwRpH7NAcws_-6" value="J" style="whiteSpace=wrap;html=1;aspect=fixed;fontStyle=1;fillColor=#ffe6cc;strokeColor=#d79b00;" parent="1" vertex="1">
          <mxGeometry x="630" y="200" width="50" height="50" as="geometry" />
        </mxCell>
        <mxCell id="jHylTcCAfwRpH7NAcws_-15" style="edgeStyle=orthogonalEdgeStyle;rounded=0;orthogonalLoop=1;jettySize=auto;html=1;entryX=0;entryY=0.5;entryDx=0;entryDy=0;" parent="1" source="jHylTcCAfwRpH7NAcws_-7" target="jHylTcCAfwRpH7NAcws_-8" edge="1">
          <mxGeometry relative="1" as="geometry" />
        </mxCell>
        <mxCell id="jHylTcCAfwRpH7NAcws_-7" value="D" style="whiteSpace=wrap;html=1;aspect=fixed;fontStyle=1;fillColor=#ffe6cc;strokeColor=#d79b00;" parent="1" vertex="1">
          <mxGeometry x="320" y="210" width="50" height="50" as="geometry" />
        </mxCell>
        <mxCell id="jHylTcCAfwRpH7NAcws_-24" style="edgeStyle=orthogonalEdgeStyle;rounded=0;orthogonalLoop=1;jettySize=auto;html=1;entryX=0;entryY=0.5;entryDx=0;entryDy=0;" parent="1" source="jHylTcCAfwRpH7NAcws_-8" target="jHylTcCAfwRpH7NAcws_-6" edge="1">
          <mxGeometry relative="1" as="geometry">
            <Array as="points">
              <mxPoint x="590" y="285" />
              <mxPoint x="590" y="225" />
            </Array>
          </mxGeometry>
        </mxCell>
        <mxCell id="jHylTcCAfwRpH7NAcws_-8" value="H" style="whiteSpace=wrap;html=1;aspect=fixed;fontStyle=1;fillColor=#ffe6cc;strokeColor=#d79b00;" parent="1" vertex="1">
          <mxGeometry x="480" y="250" width="50" height="50" as="geometry" />
        </mxCell>
        <mxCell id="jHylTcCAfwRpH7NAcws_-23" style="edgeStyle=orthogonalEdgeStyle;rounded=0;orthogonalLoop=1;jettySize=auto;html=1;entryX=0;entryY=0.5;entryDx=0;entryDy=0;" parent="1" source="jHylTcCAfwRpH7NAcws_-9" target="jHylTcCAfwRpH7NAcws_-6" edge="1">
          <mxGeometry relative="1" as="geometry">
            <Array as="points">
              <mxPoint x="590" y="175" />
              <mxPoint x="590" y="225" />
            </Array>
          </mxGeometry>
        </mxCell>
        <mxCell id="jHylTcCAfwRpH7NAcws_-9" value="G" style="whiteSpace=wrap;html=1;aspect=fixed;fontStyle=1;fillColor=#ffe6cc;strokeColor=#d79b00;" parent="1" vertex="1">
          <mxGeometry x="480" y="150" width="50" height="50" as="geometry" />
        </mxCell>
        <mxCell id="jHylTcCAfwRpH7NAcws_-16" value="K" style="whiteSpace=wrap;html=1;aspect=fixed;fontStyle=1;fillColor=#ffe6cc;strokeColor=#d79b00;" parent="1" vertex="1">
          <mxGeometry x="750" y="90" width="50" height="50" as="geometry" />
        </mxCell>
        <mxCell id="jHylTcCAfwRpH7NAcws_-27" style="edgeStyle=orthogonalEdgeStyle;rounded=0;orthogonalLoop=1;jettySize=auto;html=1;entryX=0;entryY=0.5;entryDx=0;entryDy=0;" parent="1" source="jHylTcCAfwRpH7NAcws_-19" target="jHylTcCAfwRpH7NAcws_-16" edge="1">
          <mxGeometry relative="1" as="geometry">
            <Array as="points">
              <mxPoint x="700" y="65" />
              <mxPoint x="700" y="115" />
            </Array>
          </mxGeometry>
        </mxCell>
        <mxCell id="jHylTcCAfwRpH7NAcws_-19" value="I" style="whiteSpace=wrap;html=1;aspect=fixed;fontStyle=1;fillColor=#ffe6cc;strokeColor=#d79b00;" parent="1" vertex="1">
          <mxGeometry x="480" y="40" width="50" height="50" as="geometry" />
        </mxCell>
        <mxCell id="l46T4ABHyb0yzA2NnPdU-8" style="rounded=0;orthogonalLoop=1;jettySize=auto;html=1;exitX=0.5;exitY=0;exitDx=0;exitDy=0;entryX=0.5;entryY=0;entryDx=0;entryDy=0;strokeWidth=2;" edge="1" parent="1" source="l46T4ABHyb0yzA2NnPdU-1" target="l46T4ABHyb0yzA2NnPdU-2">
          <mxGeometry relative="1" as="geometry" />
        </mxCell>
        <mxCell id="l46T4ABHyb0yzA2NnPdU-13" value="A" style="edgeLabel;html=1;align=center;verticalAlign=middle;resizable=0;points=[];" vertex="1" connectable="0" parent="l46T4ABHyb0yzA2NnPdU-8">
          <mxGeometry x="0.035" y="-2" relative="1" as="geometry">
            <mxPoint as="offset" />
          </mxGeometry>
        </mxCell>
        <mxCell id="l46T4ABHyb0yzA2NnPdU-9" style="rounded=0;orthogonalLoop=1;jettySize=auto;html=1;exitX=0.5;exitY=1;exitDx=0;exitDy=0;entryX=0.5;entryY=1;entryDx=0;entryDy=0;" edge="1" parent="1" source="l46T4ABHyb0yzA2NnPdU-1" target="l46T4ABHyb0yzA2NnPdU-2">
          <mxGeometry relative="1" as="geometry" />
        </mxCell>
        <mxCell id="l46T4ABHyb0yzA2NnPdU-14" value="B" style="edgeLabel;html=1;align=center;verticalAlign=middle;resizable=0;points=[];" vertex="1" connectable="0" parent="l46T4ABHyb0yzA2NnPdU-9">
          <mxGeometry x="0.06" y="-3" relative="1" as="geometry">
            <mxPoint as="offset" />
          </mxGeometry>
        </mxCell>
        <mxCell id="l46T4ABHyb0yzA2NnPdU-1" value="1" style="ellipse;whiteSpace=wrap;html=1;aspect=fixed;fillColor=#d5e8d4;strokeColor=#82b366;fontStyle=1" vertex="1" parent="1">
          <mxGeometry x="120" y="500" width="40" height="40" as="geometry" />
        </mxCell>
        <mxCell id="l46T4ABHyb0yzA2NnPdU-15" style="rounded=0;orthogonalLoop=1;jettySize=auto;html=1;entryX=0.5;entryY=1;entryDx=0;entryDy=0;exitX=1;exitY=0.5;exitDx=0;exitDy=0;strokeWidth=2;" edge="1" parent="1" source="l46T4ABHyb0yzA2NnPdU-2" target="l46T4ABHyb0yzA2NnPdU-5">
          <mxGeometry relative="1" as="geometry" />
        </mxCell>
        <mxCell id="l46T4ABHyb0yzA2NnPdU-18" value="D" style="edgeLabel;html=1;align=center;verticalAlign=middle;resizable=0;points=[];" vertex="1" connectable="0" parent="l46T4ABHyb0yzA2NnPdU-15">
          <mxGeometry x="-0.1408" y="-1" relative="1" as="geometry">
            <mxPoint as="offset" />
          </mxGeometry>
        </mxCell>
        <mxCell id="l46T4ABHyb0yzA2NnPdU-16" style="rounded=0;orthogonalLoop=1;jettySize=auto;html=1;exitX=0.5;exitY=0;exitDx=0;exitDy=0;entryX=0;entryY=0;entryDx=0;entryDy=0;" edge="1" parent="1" source="l46T4ABHyb0yzA2NnPdU-2" target="l46T4ABHyb0yzA2NnPdU-5">
          <mxGeometry relative="1" as="geometry" />
        </mxCell>
        <mxCell id="l46T4ABHyb0yzA2NnPdU-17" value="C" style="edgeLabel;html=1;align=center;verticalAlign=middle;resizable=0;points=[];" vertex="1" connectable="0" parent="l46T4ABHyb0yzA2NnPdU-16">
          <mxGeometry x="0.1587" y="3" relative="1" as="geometry">
            <mxPoint as="offset" />
          </mxGeometry>
        </mxCell>
        <mxCell id="l46T4ABHyb0yzA2NnPdU-30" style="rounded=0;orthogonalLoop=1;jettySize=auto;html=1;exitX=1;exitY=0.5;exitDx=0;exitDy=0;entryX=0.5;entryY=0;entryDx=0;entryDy=0;dashed=1;" edge="1" parent="1" source="l46T4ABHyb0yzA2NnPdU-2" target="l46T4ABHyb0yzA2NnPdU-6">
          <mxGeometry relative="1" as="geometry" />
        </mxCell>
        <mxCell id="l46T4ABHyb0yzA2NnPdU-31" style="rounded=0;orthogonalLoop=1;jettySize=auto;html=1;exitX=0.5;exitY=1;exitDx=0;exitDy=0;entryX=0;entryY=1;entryDx=0;entryDy=0;dashed=1;" edge="1" parent="1" source="l46T4ABHyb0yzA2NnPdU-2" target="l46T4ABHyb0yzA2NnPdU-6">
          <mxGeometry relative="1" as="geometry" />
        </mxCell>
        <mxCell id="l46T4ABHyb0yzA2NnPdU-2" value="2" style="ellipse;whiteSpace=wrap;html=1;aspect=fixed;fillColor=#d5e8d4;strokeColor=#82b366;fontStyle=1" vertex="1" parent="1">
          <mxGeometry x="250" y="500" width="40" height="40" as="geometry" />
        </mxCell>
        <mxCell id="l46T4ABHyb0yzA2NnPdU-34" style="edgeStyle=orthogonalEdgeStyle;rounded=0;orthogonalLoop=1;jettySize=auto;html=1;exitX=1;exitY=0.5;exitDx=0;exitDy=0;entryX=0;entryY=0.5;entryDx=0;entryDy=0;strokeWidth=2;" edge="1" parent="1" source="l46T4ABHyb0yzA2NnPdU-3" target="l46T4ABHyb0yzA2NnPdU-7">
          <mxGeometry relative="1" as="geometry" />
        </mxCell>
        <mxCell id="l46T4ABHyb0yzA2NnPdU-35" value="K" style="edgeLabel;html=1;align=center;verticalAlign=middle;resizable=0;points=[];" vertex="1" connectable="0" parent="l46T4ABHyb0yzA2NnPdU-34">
          <mxGeometry x="-0.0871" y="-3" relative="1" as="geometry">
            <mxPoint as="offset" />
          </mxGeometry>
        </mxCell>
        <mxCell id="l46T4ABHyb0yzA2NnPdU-3" value="6" style="ellipse;whiteSpace=wrap;html=1;aspect=fixed;fillColor=#d5e8d4;strokeColor=#82b366;fontStyle=1" vertex="1" parent="1">
          <mxGeometry x="620" y="500" width="40" height="40" as="geometry" />
        </mxCell>
        <mxCell id="l46T4ABHyb0yzA2NnPdU-25" style="edgeStyle=orthogonalEdgeStyle;rounded=0;orthogonalLoop=1;jettySize=auto;html=1;exitX=1;exitY=0.5;exitDx=0;exitDy=0;strokeWidth=2;" edge="1" parent="1" source="l46T4ABHyb0yzA2NnPdU-4" target="l46T4ABHyb0yzA2NnPdU-3">
          <mxGeometry relative="1" as="geometry" />
        </mxCell>
        <mxCell id="l46T4ABHyb0yzA2NnPdU-26" value="J" style="edgeLabel;html=1;align=center;verticalAlign=middle;resizable=0;points=[];" vertex="1" connectable="0" parent="l46T4ABHyb0yzA2NnPdU-25">
          <mxGeometry x="0.036" relative="1" as="geometry">
            <mxPoint as="offset" />
          </mxGeometry>
        </mxCell>
        <mxCell id="l46T4ABHyb0yzA2NnPdU-19" style="rounded=0;orthogonalLoop=1;jettySize=auto;html=1;exitX=1;exitY=0;exitDx=0;exitDy=0;entryX=1;entryY=0;entryDx=0;entryDy=0;" edge="1" parent="1" source="l46T4ABHyb0yzA2NnPdU-5" target="l46T4ABHyb0yzA2NnPdU-4">
          <mxGeometry relative="1" as="geometry" />
        </mxCell>
        <mxCell id="l46T4ABHyb0yzA2NnPdU-21" value="G" style="edgeLabel;html=1;align=center;verticalAlign=middle;resizable=0;points=[];" vertex="1" connectable="0" parent="l46T4ABHyb0yzA2NnPdU-19">
          <mxGeometry x="0.0416" y="1" relative="1" as="geometry">
            <mxPoint as="offset" />
          </mxGeometry>
        </mxCell>
        <mxCell id="l46T4ABHyb0yzA2NnPdU-20" style="rounded=0;orthogonalLoop=1;jettySize=auto;html=1;exitX=0.5;exitY=1;exitDx=0;exitDy=0;entryX=0;entryY=0.5;entryDx=0;entryDy=0;strokeWidth=2;" edge="1" parent="1" source="l46T4ABHyb0yzA2NnPdU-51" target="l46T4ABHyb0yzA2NnPdU-4">
          <mxGeometry relative="1" as="geometry" />
        </mxCell>
        <mxCell id="l46T4ABHyb0yzA2NnPdU-22" value="H" style="edgeLabel;html=1;align=center;verticalAlign=middle;resizable=0;points=[];" vertex="1" connectable="0" parent="l46T4ABHyb0yzA2NnPdU-20">
          <mxGeometry x="0.1144" y="2" relative="1" as="geometry">
            <mxPoint as="offset" />
          </mxGeometry>
        </mxCell>
        <mxCell id="l46T4ABHyb0yzA2NnPdU-5" value="3" style="ellipse;whiteSpace=wrap;html=1;aspect=fixed;fillColor=#d5e8d4;strokeColor=#82b366;fontStyle=1" vertex="1" parent="1">
          <mxGeometry x="360" y="420" width="40" height="40" as="geometry" />
        </mxCell>
        <mxCell id="l46T4ABHyb0yzA2NnPdU-28" style="rounded=0;orthogonalLoop=1;jettySize=auto;html=1;exitX=1;exitY=1;exitDx=0;exitDy=0;entryX=0.5;entryY=1;entryDx=0;entryDy=0;" edge="1" parent="1" source="l46T4ABHyb0yzA2NnPdU-6" target="l46T4ABHyb0yzA2NnPdU-3">
          <mxGeometry relative="1" as="geometry" />
        </mxCell>
        <mxCell id="l46T4ABHyb0yzA2NnPdU-33" value="I" style="edgeLabel;html=1;align=center;verticalAlign=middle;resizable=0;points=[];" vertex="1" connectable="0" parent="l46T4ABHyb0yzA2NnPdU-28">
          <mxGeometry x="-0.1255" relative="1" as="geometry">
            <mxPoint y="1" as="offset" />
          </mxGeometry>
        </mxCell>
        <mxCell id="l46T4ABHyb0yzA2NnPdU-29" style="rounded=0;orthogonalLoop=1;jettySize=auto;html=1;exitX=0.5;exitY=0;exitDx=0;exitDy=0;entryX=0;entryY=0.5;entryDx=0;entryDy=0;" edge="1" parent="1" source="l46T4ABHyb0yzA2NnPdU-6" target="l46T4ABHyb0yzA2NnPdU-3">
          <mxGeometry relative="1" as="geometry" />
        </mxCell>
        <mxCell id="l46T4ABHyb0yzA2NnPdU-32" value="F" style="edgeLabel;html=1;align=center;verticalAlign=middle;resizable=0;points=[];" vertex="1" connectable="0" parent="l46T4ABHyb0yzA2NnPdU-29">
          <mxGeometry x="-0.1121" y="-1" relative="1" as="geometry">
            <mxPoint as="offset" />
          </mxGeometry>
        </mxCell>
        <mxCell id="l46T4ABHyb0yzA2NnPdU-6" value="4" style="ellipse;whiteSpace=wrap;html=1;aspect=fixed;fillColor=#d5e8d4;strokeColor=#82b366;fontStyle=1" vertex="1" parent="1">
          <mxGeometry x="400" y="600" width="40" height="40" as="geometry" />
        </mxCell>
        <mxCell id="l46T4ABHyb0yzA2NnPdU-7" value="7" style="ellipse;whiteSpace=wrap;html=1;aspect=fixed;fillColor=#d5e8d4;strokeColor=#82b366;fontStyle=1" vertex="1" parent="1">
          <mxGeometry x="760" y="500" width="40" height="40" as="geometry" />
        </mxCell>
        <mxCell id="l46T4ABHyb0yzA2NnPdU-36" value="" style="edgeStyle=orthogonalEdgeStyle;rounded=0;orthogonalLoop=1;jettySize=auto;html=1;" edge="1" parent="1" source="l46T4ABHyb0yzA2NnPdU-2" target="l46T4ABHyb0yzA2NnPdU-4">
          <mxGeometry relative="1" as="geometry">
            <mxPoint x="480" y="520" as="targetPoint" />
            <mxPoint x="290" y="520" as="sourcePoint" />
          </mxGeometry>
        </mxCell>
        <mxCell id="l46T4ABHyb0yzA2NnPdU-44" value="E" style="edgeLabel;html=1;align=center;verticalAlign=middle;resizable=0;points=[];" vertex="1" connectable="0" parent="l46T4ABHyb0yzA2NnPdU-36">
          <mxGeometry x="0.1578" y="2" relative="1" as="geometry">
            <mxPoint as="offset" />
          </mxGeometry>
        </mxCell>
        <mxCell id="l46T4ABHyb0yzA2NnPdU-4" value="5" style="ellipse;whiteSpace=wrap;html=1;aspect=fixed;fillColor=#d5e8d4;strokeColor=#82b366;fontStyle=1" vertex="1" parent="1">
          <mxGeometry x="460" y="500" width="40" height="40" as="geometry" />
        </mxCell>
        <mxCell id="l46T4ABHyb0yzA2NnPdU-39" value="12" style="text;html=1;strokeColor=none;fillColor=none;align=center;verticalAlign=middle;whiteSpace=wrap;rounded=0;fontStyle=1" vertex="1" parent="1">
          <mxGeometry x="200" y="480" width="30" height="20" as="geometry" />
        </mxCell>
        <mxCell id="l46T4ABHyb0yzA2NnPdU-40" value="8" style="text;html=1;strokeColor=none;fillColor=none;align=center;verticalAlign=middle;whiteSpace=wrap;rounded=0;fontStyle=1" vertex="1" parent="1">
          <mxGeometry x="200" y="520" width="30" height="20" as="geometry" />
        </mxCell>
        <mxCell id="l46T4ABHyb0yzA2NnPdU-41" value="10" style="text;html=1;strokeColor=none;fillColor=none;align=center;verticalAlign=middle;whiteSpace=wrap;rounded=0;fontStyle=1" vertex="1" parent="1">
          <mxGeometry x="300" y="440" width="30" height="20" as="geometry" />
        </mxCell>
        <mxCell id="l46T4ABHyb0yzA2NnPdU-42" value="9" style="text;html=1;strokeColor=none;fillColor=none;align=center;verticalAlign=middle;whiteSpace=wrap;rounded=0;fontStyle=1" vertex="1" parent="1">
          <mxGeometry x="310" y="470" width="30" height="20" as="geometry" />
        </mxCell>
        <mxCell id="l46T4ABHyb0yzA2NnPdU-43" value="24" style="text;html=1;strokeColor=none;fillColor=none;align=center;verticalAlign=middle;whiteSpace=wrap;rounded=0;fontStyle=1" vertex="1" parent="1">
          <mxGeometry x="365" y="500" width="30" height="20" as="geometry" />
        </mxCell>
        <mxCell id="l46T4ABHyb0yzA2NnPdU-48" value="10" style="text;html=1;strokeColor=none;fillColor=none;align=center;verticalAlign=middle;whiteSpace=wrap;rounded=0;fontStyle=1" vertex="1" parent="1">
          <mxGeometry x="500" y="540" width="30" height="20" as="geometry" />
        </mxCell>
        <mxCell id="l46T4ABHyb0yzA2NnPdU-49" value="15" style="text;html=1;strokeColor=none;fillColor=none;align=center;verticalAlign=middle;whiteSpace=wrap;rounded=0;fontStyle=1" vertex="1" parent="1">
          <mxGeometry x="530" y="584" width="30" height="20" as="geometry" />
        </mxCell>
        <mxCell id="l46T4ABHyb0yzA2NnPdU-50" value="4" style="text;html=1;strokeColor=none;fillColor=none;align=center;verticalAlign=middle;whiteSpace=wrap;rounded=0;fontStyle=1" vertex="1" parent="1">
          <mxGeometry x="560" y="500" width="30" height="20" as="geometry" />
        </mxCell>
        <mxCell id="l46T4ABHyb0yzA2NnPdU-52" value="" style="rounded=0;orthogonalLoop=1;jettySize=auto;html=1;exitX=0.5;exitY=1;exitDx=0;exitDy=0;entryX=0;entryY=0.5;entryDx=0;entryDy=0;" edge="1" parent="1" source="l46T4ABHyb0yzA2NnPdU-5" target="l46T4ABHyb0yzA2NnPdU-51">
          <mxGeometry relative="1" as="geometry">
            <mxPoint x="380" y="460" as="sourcePoint" />
            <mxPoint x="460" y="520" as="targetPoint" />
          </mxGeometry>
        </mxCell>
        <mxCell id="l46T4ABHyb0yzA2NnPdU-51" value="40" style="text;html=1;strokeColor=none;fillColor=none;align=center;verticalAlign=middle;whiteSpace=wrap;rounded=0;fontStyle=1" vertex="1" parent="1">
          <mxGeometry x="405" y="470" width="30" height="20" as="geometry" />
        </mxCell>
        <mxCell id="l46T4ABHyb0yzA2NnPdU-54" value="35" style="text;html=1;strokeColor=none;fillColor=none;align=center;verticalAlign=middle;whiteSpace=wrap;rounded=0;fontStyle=1" vertex="1" parent="1">
          <mxGeometry x="440" y="450" width="30" height="20" as="geometry" />
        </mxCell>
        <mxCell id="l46T4ABHyb0yzA2NnPdU-55" value="6" style="text;html=1;strokeColor=none;fillColor=none;align=center;verticalAlign=middle;whiteSpace=wrap;rounded=0;fontStyle=1" vertex="1" parent="1">
          <mxGeometry x="690" y="530" width="30" height="20" as="geometry" />
        </mxCell>
        <mxCell id="l46T4ABHyb0yzA2NnPdU-56" value="12" style="text;html=1;strokeColor=none;fillColor=none;align=center;verticalAlign=middle;whiteSpace=wrap;rounded=0;fontStyle=1" vertex="1" parent="1">
          <mxGeometry x="200" y="580" width="30" height="20" as="geometry" />
        </mxCell>
        <mxCell id="l46T4ABHyb0yzA2NnPdU-82" style="edgeStyle=orthogonalEdgeStyle;rounded=0;orthogonalLoop=1;jettySize=auto;html=1;entryX=0;entryY=0.5;entryDx=0;entryDy=0;" edge="1" parent="1" source="l46T4ABHyb0yzA2NnPdU-61" target="l46T4ABHyb0yzA2NnPdU-64">
          <mxGeometry relative="1" as="geometry" />
        </mxCell>
        <mxCell id="l46T4ABHyb0yzA2NnPdU-83" style="edgeStyle=orthogonalEdgeStyle;rounded=0;orthogonalLoop=1;jettySize=auto;html=1;entryX=0;entryY=0.5;entryDx=0;entryDy=0;" edge="1" parent="1" source="l46T4ABHyb0yzA2NnPdU-61" target="l46T4ABHyb0yzA2NnPdU-66">
          <mxGeometry relative="1" as="geometry">
            <Array as="points">
              <mxPoint x="160" y="805" />
              <mxPoint x="160" y="865" />
            </Array>
          </mxGeometry>
        </mxCell>
        <mxCell id="l46T4ABHyb0yzA2NnPdU-61" value="&lt;span&gt;A&lt;/span&gt;" style="whiteSpace=wrap;html=1;aspect=fixed;fontStyle=1;fillColor=#ffe6cc;strokeColor=#d79b00;" vertex="1" parent="1">
          <mxGeometry x="74" y="780" width="50" height="50" as="geometry" />
        </mxCell>
        <mxCell id="l46T4ABHyb0yzA2NnPdU-84" style="edgeStyle=orthogonalEdgeStyle;rounded=0;orthogonalLoop=1;jettySize=auto;html=1;exitX=1;exitY=0.5;exitDx=0;exitDy=0;entryX=0;entryY=0.5;entryDx=0;entryDy=0;" edge="1" parent="1" source="l46T4ABHyb0yzA2NnPdU-64" target="l46T4ABHyb0yzA2NnPdU-74">
          <mxGeometry relative="1" as="geometry" />
        </mxCell>
        <mxCell id="l46T4ABHyb0yzA2NnPdU-64" value="B" style="whiteSpace=wrap;html=1;aspect=fixed;fontStyle=1;fillColor=#ffe6cc;strokeColor=#d79b00;" vertex="1" parent="1">
          <mxGeometry x="190" y="720" width="50" height="50" as="geometry" />
        </mxCell>
        <mxCell id="l46T4ABHyb0yzA2NnPdU-85" style="edgeStyle=orthogonalEdgeStyle;rounded=0;orthogonalLoop=1;jettySize=auto;html=1;entryX=0;entryY=0.5;entryDx=0;entryDy=0;" edge="1" parent="1" source="l46T4ABHyb0yzA2NnPdU-66" target="l46T4ABHyb0yzA2NnPdU-68">
          <mxGeometry relative="1" as="geometry">
            <Array as="points">
              <mxPoint x="370" y="865" />
              <mxPoint x="370" y="825" />
            </Array>
          </mxGeometry>
        </mxCell>
        <mxCell id="l46T4ABHyb0yzA2NnPdU-89" style="edgeStyle=orthogonalEdgeStyle;rounded=0;orthogonalLoop=1;jettySize=auto;html=1;entryX=0;entryY=0.5;entryDx=0;entryDy=0;" edge="1" parent="1" source="l46T4ABHyb0yzA2NnPdU-66" target="l46T4ABHyb0yzA2NnPdU-70">
          <mxGeometry relative="1" as="geometry">
            <Array as="points">
              <mxPoint x="370" y="865" />
              <mxPoint x="370" y="765" />
            </Array>
          </mxGeometry>
        </mxCell>
        <mxCell id="l46T4ABHyb0yzA2NnPdU-66" value="C" style="whiteSpace=wrap;html=1;aspect=fixed;fontStyle=1;fillColor=#ffe6cc;strokeColor=#d79b00;" vertex="1" parent="1">
          <mxGeometry x="240" y="840" width="50" height="50" as="geometry" />
        </mxCell>
        <mxCell id="l46T4ABHyb0yzA2NnPdU-91" style="edgeStyle=orthogonalEdgeStyle;rounded=0;orthogonalLoop=1;jettySize=auto;html=1;entryX=0;entryY=0.5;entryDx=0;entryDy=0;" edge="1" parent="1" source="l46T4ABHyb0yzA2NnPdU-68" target="l46T4ABHyb0yzA2NnPdU-78">
          <mxGeometry relative="1" as="geometry" />
        </mxCell>
        <mxCell id="l46T4ABHyb0yzA2NnPdU-68" value="E" style="whiteSpace=wrap;html=1;aspect=fixed;fontStyle=1;fillColor=#ffe6cc;strokeColor=#d79b00;" vertex="1" parent="1">
          <mxGeometry x="405" y="800" width="50" height="50" as="geometry" />
        </mxCell>
        <mxCell id="l46T4ABHyb0yzA2NnPdU-90" style="edgeStyle=orthogonalEdgeStyle;rounded=0;orthogonalLoop=1;jettySize=auto;html=1;entryX=0;entryY=0.5;entryDx=0;entryDy=0;" edge="1" parent="1" source="l46T4ABHyb0yzA2NnPdU-70" target="l46T4ABHyb0yzA2NnPdU-78">
          <mxGeometry relative="1" as="geometry" />
        </mxCell>
        <mxCell id="l46T4ABHyb0yzA2NnPdU-70" value="F" style="whiteSpace=wrap;html=1;aspect=fixed;fontStyle=1;fillColor=#ffe6cc;strokeColor=#d79b00;" vertex="1" parent="1">
          <mxGeometry x="405" y="740" width="50" height="50" as="geometry" />
        </mxCell>
        <mxCell id="l46T4ABHyb0yzA2NnPdU-87" style="edgeStyle=orthogonalEdgeStyle;rounded=0;orthogonalLoop=1;jettySize=auto;html=1;entryX=0;entryY=0.5;entryDx=0;entryDy=0;" edge="1" parent="1" source="l46T4ABHyb0yzA2NnPdU-74" target="l46T4ABHyb0yzA2NnPdU-68">
          <mxGeometry relative="1" as="geometry">
            <Array as="points">
              <mxPoint x="370" y="745" />
              <mxPoint x="370" y="825" />
            </Array>
          </mxGeometry>
        </mxCell>
        <mxCell id="l46T4ABHyb0yzA2NnPdU-88" style="edgeStyle=orthogonalEdgeStyle;rounded=0;orthogonalLoop=1;jettySize=auto;html=1;entryX=0;entryY=0.5;entryDx=0;entryDy=0;" edge="1" parent="1" source="l46T4ABHyb0yzA2NnPdU-74" target="l46T4ABHyb0yzA2NnPdU-70">
          <mxGeometry relative="1" as="geometry">
            <Array as="points">
              <mxPoint x="360" y="745" />
              <mxPoint x="360" y="765" />
            </Array>
          </mxGeometry>
        </mxCell>
        <mxCell id="l46T4ABHyb0yzA2NnPdU-74" value="D" style="whiteSpace=wrap;html=1;aspect=fixed;fontStyle=1;fillColor=#ffe6cc;strokeColor=#d79b00;" vertex="1" parent="1">
          <mxGeometry x="290" y="720" width="50" height="50" as="geometry" />
        </mxCell>
        <mxCell id="l46T4ABHyb0yzA2NnPdU-78" value="G" style="whiteSpace=wrap;html=1;aspect=fixed;fontStyle=1;fillColor=#ffe6cc;strokeColor=#d79b00;" vertex="1" parent="1">
          <mxGeometry x="510" y="770" width="50" height="50" as="geometry" />
        </mxCell>
        <mxCell id="l46T4ABHyb0yzA2NnPdU-105" value="" style="childLayout=tableLayout;recursiveResize=0;shadow=0;fillColor=none;" vertex="1" parent="1">
          <mxGeometry x="46.5" y="850" width="105" height="20" as="geometry" />
        </mxCell>
        <mxCell id="l46T4ABHyb0yzA2NnPdU-110" style="shape=tableRow;horizontal=0;startSize=0;swimlaneHead=0;swimlaneBody=0;top=0;left=0;bottom=0;right=0;dropTarget=0;collapsible=0;recursiveResize=0;expand=0;fontStyle=0;fillColor=none;strokeColor=inherit;" vertex="1" parent="l46T4ABHyb0yzA2NnPdU-105">
          <mxGeometry width="105" height="20" as="geometry" />
        </mxCell>
        <mxCell id="l46T4ABHyb0yzA2NnPdU-111" value="0" style="connectable=0;recursiveResize=0;strokeColor=inherit;fillColor=none;align=center;whiteSpace=wrap;html=1;" vertex="1" parent="l46T4ABHyb0yzA2NnPdU-110">
          <mxGeometry width="35" height="20" as="geometry">
            <mxRectangle width="35" height="20" as="alternateBounds" />
          </mxGeometry>
        </mxCell>
        <mxCell id="l46T4ABHyb0yzA2NnPdU-112" value="22" style="connectable=0;recursiveResize=0;strokeColor=inherit;fillColor=none;align=center;whiteSpace=wrap;html=1;" vertex="1" parent="l46T4ABHyb0yzA2NnPdU-110">
          <mxGeometry x="35" width="44" height="20" as="geometry">
            <mxRectangle width="44" height="20" as="alternateBounds" />
          </mxGeometry>
        </mxCell>
        <mxCell id="l46T4ABHyb0yzA2NnPdU-113" value="22" style="connectable=0;recursiveResize=0;strokeColor=inherit;fillColor=none;align=center;whiteSpace=wrap;html=1;" vertex="1" parent="l46T4ABHyb0yzA2NnPdU-110">
          <mxGeometry x="79" width="26" height="20" as="geometry">
            <mxRectangle width="26" height="20" as="alternateBounds" />
          </mxGeometry>
        </mxCell>
        <mxCell id="l46T4ABHyb0yzA2NnPdU-128" value="" style="childLayout=tableLayout;recursiveResize=0;shadow=0;fillColor=none;" vertex="1" parent="1">
          <mxGeometry x="170" y="690" width="105" height="20" as="geometry" />
        </mxCell>
        <mxCell id="l46T4ABHyb0yzA2NnPdU-129" style="shape=tableRow;horizontal=0;startSize=0;swimlaneHead=0;swimlaneBody=0;top=0;left=0;bottom=0;right=0;dropTarget=0;collapsible=0;recursiveResize=0;expand=0;fontStyle=0;fillColor=none;strokeColor=inherit;" vertex="1" parent="l46T4ABHyb0yzA2NnPdU-128">
          <mxGeometry width="105" height="20" as="geometry" />
        </mxCell>
        <mxCell id="l46T4ABHyb0yzA2NnPdU-130" value="22" style="connectable=0;recursiveResize=0;strokeColor=inherit;fillColor=none;align=center;whiteSpace=wrap;html=1;" vertex="1" parent="l46T4ABHyb0yzA2NnPdU-129">
          <mxGeometry width="39" height="20" as="geometry">
            <mxRectangle width="39" height="20" as="alternateBounds" />
          </mxGeometry>
        </mxCell>
        <mxCell id="l46T4ABHyb0yzA2NnPdU-131" value="4" style="connectable=0;recursiveResize=0;strokeColor=inherit;fillColor=none;align=center;whiteSpace=wrap;html=1;" vertex="1" parent="l46T4ABHyb0yzA2NnPdU-129">
          <mxGeometry x="39" width="31" height="20" as="geometry">
            <mxRectangle width="31" height="20" as="alternateBounds" />
          </mxGeometry>
        </mxCell>
        <mxCell id="l46T4ABHyb0yzA2NnPdU-132" value="26" style="connectable=0;recursiveResize=0;strokeColor=inherit;fillColor=none;align=center;whiteSpace=wrap;html=1;" vertex="1" parent="l46T4ABHyb0yzA2NnPdU-129">
          <mxGeometry x="70" width="35" height="20" as="geometry">
            <mxRectangle width="35" height="20" as="alternateBounds" />
          </mxGeometry>
        </mxCell>
        <mxCell id="l46T4ABHyb0yzA2NnPdU-133" value="" style="childLayout=tableLayout;recursiveResize=0;shadow=0;fillColor=none;" vertex="1" parent="1">
          <mxGeometry x="381" y="855" width="105" height="20" as="geometry" />
        </mxCell>
        <mxCell id="l46T4ABHyb0yzA2NnPdU-134" style="shape=tableRow;horizontal=0;startSize=0;swimlaneHead=0;swimlaneBody=0;top=0;left=0;bottom=0;right=0;dropTarget=0;collapsible=0;recursiveResize=0;expand=0;fontStyle=0;fillColor=none;strokeColor=inherit;" vertex="1" parent="l46T4ABHyb0yzA2NnPdU-133">
          <mxGeometry width="105" height="20" as="geometry" />
        </mxCell>
        <mxCell id="l46T4ABHyb0yzA2NnPdU-135" value="28" style="connectable=0;recursiveResize=0;strokeColor=inherit;fillColor=none;align=center;whiteSpace=wrap;html=1;" vertex="1" parent="l46T4ABHyb0yzA2NnPdU-134">
          <mxGeometry width="39" height="20" as="geometry">
            <mxRectangle width="39" height="20" as="alternateBounds" />
          </mxGeometry>
        </mxCell>
        <mxCell id="l46T4ABHyb0yzA2NnPdU-136" value="5" style="connectable=0;recursiveResize=0;strokeColor=inherit;fillColor=none;align=center;whiteSpace=wrap;html=1;" vertex="1" parent="l46T4ABHyb0yzA2NnPdU-134">
          <mxGeometry x="39" width="36" height="20" as="geometry">
            <mxRectangle width="36" height="20" as="alternateBounds" />
          </mxGeometry>
        </mxCell>
        <mxCell id="l46T4ABHyb0yzA2NnPdU-137" value="32" style="connectable=0;recursiveResize=0;strokeColor=inherit;fillColor=none;align=center;whiteSpace=wrap;html=1;" vertex="1" parent="l46T4ABHyb0yzA2NnPdU-134">
          <mxGeometry x="75" width="30" height="20" as="geometry">
            <mxRectangle width="30" height="20" as="alternateBounds" />
          </mxGeometry>
        </mxCell>
        <mxCell id="l46T4ABHyb0yzA2NnPdU-138" value="" style="shape=image;verticalLabelPosition=bottom;labelBackgroundColor=default;verticalAlign=top;aspect=fixed;imageAspect=0;image=data:image/png,iVBORw0KGgoAAAANSUhEUgAAAOgAAADPCAYAAAD/AJ32AAAAAXNSR0IArs4c6QAAAARnQU1BAACxjwv8YQUAAAAJcEhZcwAADsMAAA7DAcdvqGQAAA92SURBVHhe7d2/b9tmGgfwR/dHBOhtCaQMhgvc4IlElvRwqGQ08OTJQNAhFG4IpMW5xUVQNEvrhUKGg5ThEMCTJ6OFqeLQZgnEyUOBGsYh5CXT9dD8E7r3JV9S1E9TTs5+Xj7fD0BYpmlZ4sOH7w9aD2tjhQCApT+YrwDAEBIUgDEkKABjSFAAxpCgAIwhQQEYQ4ICMIYEBWBs7X9UqNVq5hEA/L9dKUHHv/XNd3ATan9sIwYVsiqe6OICMIYEBWAMCQrAGBIUgDEkKABjSNCyXh0ls221Bz9TbFZd2cd8LijpPfUeqH2u9nv71Xuzjr+bSdB3P5OrD9BkOaKhWf3B8uf9lnrvzLrLXOV3RJgc0FPLg2+p/eKc34nlsji++id1z9TXvcfUv38rXWeBG0nQ+KczCs1jotf07MX6Z7ThE3PAPDk3a+BanL2lwdPn1LDqhHZO7b3XRFu7FH23adbZ4QYS9D2d/vBWfb1H/tf3kjXhD79+nDPy7c9o9Fufxr/9jTq3zbrLXOV3hHG+/ia5kK6X6OgeOcnat9TtMOqir4zjJvX1z77/jOpmjS2uP0Hf/UrHuqux9QltP/oTeXrd2RmdLjgbxy+OCl1h1bVKxg5p16t1lG5DR88nLelMN2dZKxu/+Hbp76Teq9812+jlgeqG/9v8qCBWY0l3phvoPpk9aMs9ly3q9/dopJI0kcetOL5LfpKaG2urlsx8P9T7Tj82Q5xy+3LZMaEs6eLOP+9sFz177ep1vFOvr7Dtor9/3a49QbPurfPFp+pstkk7e3rtWzr+abqbq5Oo8fR1oSusulZ7/1irW9X83BxIR78UxrlZC07kfb64uzN88pU6AaTbJM5eU0u9lmnndKi6TaE+2RSER8fUKJwQyj2XZe6bE6uKycUa8cidHVNL7zvzbdl9ue4xkWw/97ymiz5z0tZDrZb7nAaFbWf//k245gRVgXiqD9Y7tPvndKCeJdF0NzfbrtC9Gj0mf0uvuUWd7/sUJImtqEF/8vNFY4v8QHpNJ9mZPZssUF3snfvJmhnndGJa5/m/XbRJ+0ePKRrpblW6RKbLTv/6PW8xyj2XbW7Rxoe+BxW3KNlve9QsuS+XHxOLLNg+ed47yTo6Op1P7K17FCSv4ZvJ8ZX//ZtxvQn66hca6K9bW7SdjRNuf5KOadRZ9TBLone/q92r3aODR2bG7famSsx1x4lZC000+DF9xuGPpvXa+5M6MBZY9re75oApqKvXctiZdF/12X3KGs9ll/d0MdParecO+X/dnBoPXnlfLjsmsmOtuL1Sf7S9tPX3uupkkTzXrUnv64Zda4LmyaGSsWECUXOP8y5LlkT07r+FbsyHyXe0PhOqccqzpEVLD5APosc8SZeo0H2VIj/479DGWifMJcrsy494TNjkGhN00t1bKhsrZq1q8RKMGsD3HhytNQZNZN3cszM6/Lu5vFNswZea+dv+7BndHDC6WzTbLZtzyXNZJJl00ZcstAX7UZ9kky7hOu+zzL5c95hYtL0SvzjNW9bFQxxeri9B8+7trhl7FJbRbr4zk7Hi7c/owHRNw6dfmZb2uRo7/iddqTQa2ViiMIu70GQiamAma9IJqiWW/u10XS7vmr+mlukNzHXLyj4Xc/lr1+8xn9xRyZRftrhF219M4pH0jtZ5nx+0LyfHxJRF2yfPm41L/7J4iMPMtSVo1r1dmBy3P6VdM9jPurnN7/RA/Y5JXO0OeV9/mY836o++JF/9POM0JuOMWdPjiekxySL6bxefO508eGzGLoY6AF7m1wQ1/fp2p7dRSj2XTbb0+9QTPHpyZ0LHQ8crt877XGNfrjomZiXbq5Z4sr2iX//RNzS65BjgooaKCvbRLQFiUB2r4nm9s7gAsBYkKABjSFAAxpCgAIxdaZIIAK7H1WZx1/sV+MgQg2pZFU90cQEYQ4ICMIYEBWAMCQrAGBIUgDEkKABjshI07pFbqyXT2rVa++PV44UPMKR2HpN0ac8Fpsw21SQqQePTSfUGogE9691ktRlQEaGe2yIKxsl1QL0EnopMq5iAZbapMPWG13KFX2EiGvsOqdfvjX3fS94HOb5aax97Y1BC5I8d9f4cf0VkymxjkVXxlNOCxqd0rJtPZ4O2Ozvph4HDYzpFIwqMiUnQrHvr7G5TnZq0k2YoHSNDeYkukjht3l1RA77MNlVhWtLSrvArDARjlY/qtTvjvFcU2NvNtTMGZZg4rYxJmW3ssiqeMhJ0UTKacYxe7wVmnSWqmqCBp+NROIkuUGYb24hP0DSoKxbLMlS/5qqRmpzaqngKSNCse7tq8dRW9tCvuUqyE+iq82SZbWy1Kp7VnyQanqT1eB2f1IlX74nJEvmmJOOATvBfCzci7rnUUgFSiUf9JYVqy2xTWTpL13GFX7lR2Zl38TWz7NqoWiw6NdsWg+VW9W6yrmyZbeym38syqKhgIcSgWlbFU9b/4gJYBgkKwBgSFIAxJCgAY6iLC8AYZnEthBhUC2ZxASyFBAVgDAkKwBgSFIAxJCgAY0hQAMZEJOiwPV1TNVlcl9pD1CPiTH/MLI1Vj6RGSkCCxvTm3DwsCkMatBpiCiBbJ+7Rwy6R56Wf2JVKVBfX8aPkgvB4HJFv4j7AJ7UZiqmns9N/SfsbZpVQ4segzkbDPAIu4t5D6oYeHXQElNW8hKgEDbsNMwZtqANAJacX0EscBLwkXduQvKBP0qqbLCK6BQ0HLXqIQSgrw8MuherEKa720BJCx6BjiswgNBw8I9xDiYlhm1oDjwJkZ05sC1rvHKT3Z6GQLqLkAdyw4YmuvzigVuFyWEOPRcIuNdRjV+CZVGyCxj1TjpMcwjwRD81+oSRqsadjSqaOBM4XCJ0k0mfmND3JOyDMEwFXAhK0Tnc3zcMixyHPDyjCeAcYQ0UFCyEG1bIqnmLHoAA2QIICMIYEBWAMCQrAGOriAjCGWVwLIQbVgllcAEshQQEYQ4ICMIYEBWAMCQrAGBIUgDFBCRpTPGyT604+DIzauHzN1TIWWppGyHXQmHpuWihsnkN+NLLqM6F2xqAsEyvyKRp1SMJHdVfFU0QLmpZxTB87+jOgamfoHRJFAQmvi8xOVnIzEJKclxHQgg6pXWul5U28gMYV+IB2dVvQtPU83o1ElTeR3YLGbyi784O3g+oJvEV0oXs6F4fkqoNWH7jp4oqtvChokgjFwWwRnm/QS9Wi6FYlvU1HSN1GW/WF5BGUoCivaQtnd7sw/qxT50AXSB2QxNvoVD9B63cpqxmGGyVZqrGh+j8yCWhBm7STVqhWGdqithrM5MOZeEhtV+74hp8GbahMDI9PJzHSogvV/xE6RFH9/LVc4VcYCMYqR5PXPr84Yz8ym1lCv+7KCrzk/XmB+T6L3WRF5ayKp5AE1SIVe2esTtDJe0gWx1EHgmXZqdgbg3Ii35nESC8VTk5tVTxRUcFCiEG1yL4OCmAxJCgAY0hQAMaQoACMoS4uAGOYxbUQYlAtmMUFsBQSFIAxJCgAY0hQAMaQoACMIUEBGBOQoLoQVbG+jVl0TdzecPpzh8CALvI2HSuhJXETclvQMKRBt0UNwQWp+NEn0xZRkNUjGlPg6c/Zy01SUQnq+FEe+EhFPi2jEVL3YQ8tKQt16ozGVKyM2tz3kzidv5EZIbEtaL3Zp5E+PWvhMZ0iQ4Eh2ZNEzR1KUxQV/9hK6hERbd6VWWdedoKaIlXA1ZDarYEem9C+0JrjwhPUVDIHloZtfcsOh/yXcu/TIjtBhyfpPVuklnRkTN9+sDWw785zH5vYBE3uFaq7T5qzS9uCDwJu0uTU97qSnZyagM+DmvtNLu3KehSM+2TTEMe+GJQX91xqqGB5wfTllipbFU+5XVzHIS+5V6hdyVltQzo0Z1L9zwnZfxKli8x/KEFFBQshBtWyKp7CZ3EBeEOCAjCGBAVgDAkKwBjq4gIwhllcCyEG1YJZXABLIUEBGEOCAjCGBAVgDAkKwBgSFIAxMQmqP2Oop7PnFhcV/ThZFieU3QTgwvEpGk9q4+pFymdDZ8lLUC+YCvx4JLfeDfCHFhSAMXkJOmhhbMNd2KVGIUau4HtzoAUFVpr9wvBDLZHvqHxtiE1S8WNQqZMPtqh3RskNlMLjU5Gz7WhBwQ7hBUm8OwcSFJiL6c25+uJskMTa4uIniWq1NmGeiIm4R+7MP47EvYdJTWPvQOblMLSgwEd9m3Zpega30d2kQPBcASoqWAgxqJZV8UQLCsAYEhSAMSQoAGNIUADGUBcXgDHM4loIMagWzOICWAoJCsAYEhSAMSQoAGNIUADGkKAAjAlJ0Jh6bvEjZpNFcr0bruZq4wquXYwWFFjRydkaeMlHzPS1wfE4IE8XEROapOIS1PEjE/h0GXVQFZcPUz3B26HJxz+btO87KHkCcPPqdHdTfTl/U2gtYzo91iUVikkrBxIUWGn2TZe25lIvHlK71qBuqLq8QksqiEtQXWO1OAGBwtXcNKmvx50UUrfRooFa4wV9ka2nhhYUWIl7rjpxtoiCdI5AF64etNTJVOiZVPwkEQpXMxL36GE3TGKUxUUXrh7rytWDlsjeDlpQ4CO6UB1bos27MzPrjQ1yzENpkKDAR3NHjT1VY/ls+prn8LCrEtejHYG9HSQoMGImiGbubpb+44LMiSJUVLAQYlAtq+KJFhSAMSQoAGNIUADGkKAAjKEuLgBjmMW1EGJQLZjFBbAUEhSAMSQoAGNIUADGkKAAjCFBARgTlKAxxcM2uTP1cV23Tb0hauPyoesQTcdIdFkafR10HVf4FQaise9Q8toXL944MFvaQL/makrj5BWCEXhpjIrrqmZVPEW0oMO2rgynHznk+RFFap+o964W9VgdAY7Uj+uzU6fOaLoMTXPfT6opnL+R2cupfoLGPXqmS8MpXjCifqeuDoOMetzs02gkt2oc8Fb9BDV1blR6iiyZYb1ldYqEqHyCxsm9BBRngxrpo/mb89TahPK4HA2p3VLdH8enfaEn18onaD25l4Ai9N4eNhu2deFqh/yXncKwRJbqd3Hzko0DOjHNZLNvJol0vVVgKb3LmUrOaESS729V/QStb9OumaUdtFxq45one2lyppN60m8+J+TzoGos46ruUjpbtIBdZR3tjEE5+tYPjW6oklNO1f9V8ax+C5poUn8UUeDPX/N0HI/8YB+XWVgY0mF6wTq9H0s+iacXfbez5EeioKKChRCDalkVTyEtKICdkKAAjCFBARhDggIwhrq4AIytnaAAcH3QxQVgDAkKwBgSFIAxJCgAW0T/A3+B1Tk0ccPIAAAAAElFTkSuQmCC;" vertex="1" parent="1">
          <mxGeometry x="536.45" y="930" width="153.55" height="137" as="geometry" />
        </mxCell>
        <mxCell id="l46T4ABHyb0yzA2NnPdU-140" value="" style="childLayout=tableLayout;recursiveResize=0;shadow=0;fillColor=none;" vertex="1" parent="1">
          <mxGeometry x="536.45" y="750" width="105" height="20" as="geometry" />
        </mxCell>
        <mxCell id="l46T4ABHyb0yzA2NnPdU-141" style="shape=tableRow;horizontal=0;startSize=0;swimlaneHead=0;swimlaneBody=0;top=0;left=0;bottom=0;right=0;dropTarget=0;collapsible=0;recursiveResize=0;expand=0;fontStyle=0;fillColor=none;strokeColor=inherit;" vertex="1" parent="l46T4ABHyb0yzA2NnPdU-140">
          <mxGeometry width="105" height="20" as="geometry" />
        </mxCell>
        <mxCell id="l46T4ABHyb0yzA2NnPdU-142" value="36" style="connectable=0;recursiveResize=0;strokeColor=inherit;fillColor=none;align=center;whiteSpace=wrap;html=1;" vertex="1" parent="l46T4ABHyb0yzA2NnPdU-141">
          <mxGeometry width="39" height="20" as="geometry">
            <mxRectangle width="39" height="20" as="alternateBounds" />
          </mxGeometry>
        </mxCell>
        <mxCell id="l46T4ABHyb0yzA2NnPdU-143" value="2" style="connectable=0;recursiveResize=0;strokeColor=inherit;fillColor=none;align=center;whiteSpace=wrap;html=1;" vertex="1" parent="l46T4ABHyb0yzA2NnPdU-141">
          <mxGeometry x="39" width="40" height="20" as="geometry">
            <mxRectangle width="40" height="20" as="alternateBounds" />
          </mxGeometry>
        </mxCell>
        <mxCell id="l46T4ABHyb0yzA2NnPdU-144" value="38" style="connectable=0;recursiveResize=0;strokeColor=inherit;fillColor=none;align=center;whiteSpace=wrap;html=1;" vertex="1" parent="l46T4ABHyb0yzA2NnPdU-141">
          <mxGeometry x="79" width="26" height="20" as="geometry">
            <mxRectangle width="26" height="20" as="alternateBounds" />
          </mxGeometry>
        </mxCell>
        <mxCell id="l46T4ABHyb0yzA2NnPdU-145" value="" style="childLayout=tableLayout;recursiveResize=0;shadow=0;fillColor=none;" vertex="1" parent="1">
          <mxGeometry x="190" y="910" width="105" height="20" as="geometry" />
        </mxCell>
        <mxCell id="l46T4ABHyb0yzA2NnPdU-146" style="shape=tableRow;horizontal=0;startSize=0;swimlaneHead=0;swimlaneBody=0;top=0;left=0;bottom=0;right=0;dropTarget=0;collapsible=0;recursiveResize=0;expand=0;fontStyle=0;fillColor=none;strokeColor=inherit;" vertex="1" parent="l46T4ABHyb0yzA2NnPdU-145">
          <mxGeometry width="105" height="20" as="geometry" />
        </mxCell>
        <mxCell id="l46T4ABHyb0yzA2NnPdU-147" value="22" style="connectable=0;recursiveResize=0;strokeColor=inherit;fillColor=none;align=center;whiteSpace=wrap;html=1;" vertex="1" parent="l46T4ABHyb0yzA2NnPdU-146">
          <mxGeometry width="39" height="20" as="geometry">
            <mxRectangle width="39" height="20" as="alternateBounds" />
          </mxGeometry>
        </mxCell>
        <mxCell id="l46T4ABHyb0yzA2NnPdU-148" value="6" style="connectable=0;recursiveResize=0;strokeColor=inherit;fillColor=none;align=center;whiteSpace=wrap;html=1;" vertex="1" parent="l46T4ABHyb0yzA2NnPdU-146">
          <mxGeometry x="39" width="31" height="20" as="geometry">
            <mxRectangle width="31" height="20" as="alternateBounds" />
          </mxGeometry>
        </mxCell>
        <mxCell id="l46T4ABHyb0yzA2NnPdU-149" value="28" style="connectable=0;recursiveResize=0;strokeColor=inherit;fillColor=none;align=center;whiteSpace=wrap;html=1;" vertex="1" parent="l46T4ABHyb0yzA2NnPdU-146">
          <mxGeometry x="70" width="35" height="20" as="geometry">
            <mxRectangle width="35" height="20" as="alternateBounds" />
          </mxGeometry>
        </mxCell>
        <mxCell id="l46T4ABHyb0yzA2NnPdU-150" value="" style="childLayout=tableLayout;recursiveResize=0;shadow=0;fillColor=none;" vertex="1" parent="1">
          <mxGeometry x="414" y="720" width="105" height="20" as="geometry" />
        </mxCell>
        <mxCell id="l46T4ABHyb0yzA2NnPdU-151" style="shape=tableRow;horizontal=0;startSize=0;swimlaneHead=0;swimlaneBody=0;top=0;left=0;bottom=0;right=0;dropTarget=0;collapsible=0;recursiveResize=0;expand=0;fontStyle=0;fillColor=none;strokeColor=inherit;" vertex="1" parent="l46T4ABHyb0yzA2NnPdU-150">
          <mxGeometry width="105" height="20" as="geometry" />
        </mxCell>
        <mxCell id="l46T4ABHyb0yzA2NnPdU-152" value="28" style="connectable=0;recursiveResize=0;strokeColor=inherit;fillColor=none;align=center;whiteSpace=wrap;html=1;" vertex="1" parent="l46T4ABHyb0yzA2NnPdU-151">
          <mxGeometry width="39" height="20" as="geometry">
            <mxRectangle width="39" height="20" as="alternateBounds" />
          </mxGeometry>
        </mxCell>
        <mxCell id="l46T4ABHyb0yzA2NnPdU-153" value="8" style="connectable=0;recursiveResize=0;strokeColor=inherit;fillColor=none;align=center;whiteSpace=wrap;html=1;" vertex="1" parent="l46T4ABHyb0yzA2NnPdU-151">
          <mxGeometry x="39" width="27" height="20" as="geometry">
            <mxRectangle width="27" height="20" as="alternateBounds" />
          </mxGeometry>
        </mxCell>
        <mxCell id="l46T4ABHyb0yzA2NnPdU-154" value="36" style="connectable=0;recursiveResize=0;strokeColor=inherit;fillColor=none;align=center;whiteSpace=wrap;html=1;" vertex="1" parent="l46T4ABHyb0yzA2NnPdU-151">
          <mxGeometry x="66" width="39" height="20" as="geometry">
            <mxRectangle width="39" height="20" as="alternateBounds" />
          </mxGeometry>
        </mxCell>
        <mxCell id="l46T4ABHyb0yzA2NnPdU-156" value="" style="childLayout=tableLayout;recursiveResize=0;shadow=0;fillColor=none;" vertex="1" parent="1">
          <mxGeometry x="300" y="690" width="105" height="20" as="geometry" />
        </mxCell>
        <mxCell id="l46T4ABHyb0yzA2NnPdU-157" style="shape=tableRow;horizontal=0;startSize=0;swimlaneHead=0;swimlaneBody=0;top=0;left=0;bottom=0;right=0;dropTarget=0;collapsible=0;recursiveResize=0;expand=0;fontStyle=0;fillColor=none;strokeColor=inherit;" vertex="1" parent="l46T4ABHyb0yzA2NnPdU-156">
          <mxGeometry width="105" height="20" as="geometry" />
        </mxCell>
        <mxCell id="l46T4ABHyb0yzA2NnPdU-158" value="26" style="connectable=0;recursiveResize=0;strokeColor=inherit;fillColor=none;align=center;whiteSpace=wrap;html=1;" vertex="1" parent="l46T4ABHyb0yzA2NnPdU-157">
          <mxGeometry width="39" height="20" as="geometry">
            <mxRectangle width="39" height="20" as="alternateBounds" />
          </mxGeometry>
        </mxCell>
        <mxCell id="l46T4ABHyb0yzA2NnPdU-159" value="2" style="connectable=0;recursiveResize=0;strokeColor=inherit;fillColor=none;align=center;whiteSpace=wrap;html=1;" vertex="1" parent="l46T4ABHyb0yzA2NnPdU-157">
          <mxGeometry x="39" width="31" height="20" as="geometry">
            <mxRectangle width="31" height="20" as="alternateBounds" />
          </mxGeometry>
        </mxCell>
        <mxCell id="l46T4ABHyb0yzA2NnPdU-160" value="28" style="connectable=0;recursiveResize=0;strokeColor=inherit;fillColor=none;align=center;whiteSpace=wrap;html=1;" vertex="1" parent="l46T4ABHyb0yzA2NnPdU-157">
          <mxGeometry x="70" width="35" height="20" as="geometry">
            <mxRectangle width="35" height="20" as="alternateBounds" />
          </mxGeometry>
        </mxCell>
      </root>
    </mxGraphModel>
  </diagram>
</mxfile>
